<?xml version="1.0" encoding="UTF-8" standalone="no"?>
<!-- Created with Inkscape (http://www.inkscape.org/) -->

<svg
   xmlns:dc="http://purl.org/dc/elements/1.1/"
   xmlns:cc="http://creativecommons.org/ns#"
   xmlns:rdf="http://www.w3.org/1999/02/22-rdf-syntax-ns#"
   xmlns:svg="http://www.w3.org/2000/svg"
   xmlns="http://www.w3.org/2000/svg"
   xmlns:sodipodi="http://sodipodi.sourceforge.net/DTD/sodipodi-0.dtd"
   xmlns:inkscape="http://www.inkscape.org/namespaces/inkscape"
   id="svg2"
   version="1.1"
   inkscape:version="0.48.2 r9819"
   width="500"
   height="222.93892"
   sodipodi:docname="UN_logo.svg">
  <metadata
     id="metadata8">
    <rdf:RDF>
      <cc:Work
         rdf:about="">
        <dc:format>image/svg+xml</dc:format>
        <dc:type
           rdf:resource="http://purl.org/dc/dcmitype/StillImage" />
        <dc:title />
      </cc:Work>
    </rdf:RDF>
  </metadata>
  <defs
     id="defs6" />
  <sodipodi:namedview
     pagecolor="#ffffff"
     bordercolor="#666666"
     borderopacity="1"
     objecttolerance="10"
     gridtolerance="10"
     guidetolerance="10"
     inkscape:pageopacity="0"
     inkscape:pageshadow="2"
     inkscape:window-width="1366"
     inkscape:window-height="706"
     id="namedview4"
     showgrid="false"
     inkscape:zoom="1"
     inkscape:cx="225.6127"
     inkscape:cy="83.524864"
     inkscape:window-x="-8"
     inkscape:window-y="-8"
     inkscape:window-maximized="1"
     inkscape:current-layer="svg2"
     fit-margin-top="0"
     fit-margin-left="0"
     fit-margin-right="0"
     fit-margin-bottom="0">
    <inkscape:grid
       type="xygrid"
       id="grid3753"
       empspacing="5"
       visible="true"
       enabled="true"
       snapvisiblegridlinesonly="true" />
  </sodipodi:namedview>
  <g
     id="g3785"
     transform="matrix(2.8743085,0,0,2.8743085,260.08505,5.748617e-5)">
    <g
       transform="translate(-104.01906,-61.011891)"
       id="g3791">
      <g
         id="g3764">
        <path
           sodipodi:nodetypes="ccccscssccscc"
           inkscape:connector-curvature="0"
           id="path3768"
           transform="translate(12.019064,61.012)"
           d="m 92,0 0,77.5625 13.59375,0 0,-19.78125 c 0,-10.69793 0.49626,-21.745229 1.09375,-24.53125 2.79884,-13.050538 13.90145,-21.00577 27.8125,-20.96875 13.91105,-0.03702 24.98241,7.918212 27.78125,20.96875 0.59749,2.786021 1.09375,13.83332 1.09375,24.53125 l 0,19.78125 12.09375,0 0,-44.312353 C 175.46875,19.684197 163.17548,-0.05726 134.5,0 z"
           style="fill:#000000;fill-opacity:1;stroke:none" />
      </g>
    </g>
    <g
       id="g3779"
       transform="matrix(-1,0,0,-1,97.001684,138.57448)">
      <g
         id="g3781">
        <path
           style="fill:#000000;fill-opacity:1;stroke:none"
           d="m 92,0 0,77.5625 13.59375,0 0,-19.78125 c 0,-10.69793 0.49626,-21.745229 1.09375,-24.53125 2.79884,-13.050538 13.90145,-21.00577 27.8125,-20.96875 13.91105,-0.03702 24.98241,7.918212 27.78125,20.96875 0.59749,2.786021 1.09375,13.83332 1.09375,24.53125 l 0,19.78125 12.09375,0 0,-44.312353 C 175.46875,19.684197 163.17548,-0.05726 134.5,0 z"
           transform="translate(12.019064,61.012)"
           id="path3783"
           inkscape:connector-curvature="0"
           sodipodi:nodetypes="ccccscssccscc" />
      </g>
    </g>
  </g>
</svg>
